# xmcd
#
# Track frame offsets:
#	183
#	11838
#	21670
#	33045
#	48288
#	61608
#	73773
#	86210
#	97353
#	111740
#	122245
#	138638
#	154350
#	164858
#	176603
#
# Disc length: 2524 seconds
#
# Revision: 2
# Processed by: cddbd v1.4PL0 Copyright (c) Steve Scherf et al.
# Submitted via: audiograbber 1.81.03
#
DISCID=e609da0f
DTITLE=For the love of Country - 15 classic tracks
DYEAR=1900
DGENRE=
TTITLE0=Patsy Cline - Cry not for me
TTITLE1=George Jones - Lonely street
TTITLE2=Jo Anne Houston - The race is on
TTITLE3=Willie Nelson - Face of a fighter
TTITLE4=Dottie West - D.I.V.O.R.C.E.
TTITLE5=Kenny Rogers - Me and Bobby McGee
TTITLE6=Lynn Anderson - Stand by your man
TTITLE7=Waylon Jackson - Dream baby
TTITLE8=Jo Anne Houston - Loving him was easier
TTITLE9=Don Gibson - Sea of heartbreak
TTITLE10=Jeanni C. Riley - The cotton patch
TTITLE11=Don Williams - Tears
TTITLE12=Anne Murray - It´s all over
TTITLE13=Johnny Paycheck - Release me
TTITLE14=Lynn Anderson - Top of the world
EXTD=
EXTT0=
EXTT1=
EXTT2=
EXTT3=
EXTT4=
EXTT5=
EXTT6=
EXTT7=
EXTT8=
EXTT9=
EXTT10=
EXTT11=
EXTT12=
EXTT13=
EXTT14=
PLAYORDER=
